<?xml version="1.0" encoding="UTF-8"?>
<svg version="1.1" xmlns="http://www.w3.org/2000/svg" width="66" height="66">
<path d="M0 0 C0.99734161 -0.00761353 1.99468323 -0.01522705 3.02224731 -0.02307129 C5.12857566 -0.03385914 7.23495744 -0.03673075 9.34130859 -0.03222656 C12.5526725 -0.03125533 15.76163775 -0.07287042 18.97265625 -0.1171875 C21.02343254 -0.12239572 23.0742171 -0.12508267 25.125 -0.125 C26.55656937 -0.1495929 26.55656937 -0.1495929 28.01705933 -0.17468262 C33.41676199 -0.11911787 37.11159578 0.47313578 41.31080627 4.01683044 C46.2394501 9.18545607 46.15063243 14.70239127 46.12890625 21.43359375 C46.1341481 22.38512833 46.13938995 23.3366629 46.14479065 24.31703186 C46.15119501 26.32324246 46.14989445 28.3294907 46.14135742 30.33569336 C46.13284909 33.39310039 46.16162861 36.44863671 46.19335938 39.50585938 C46.19497171 41.46093694 46.19439324 43.4160178 46.19140625 45.37109375 C46.20264023 46.27858871 46.21387421 47.18608368 46.22544861 48.12107849 C46.16048672 54.08351993 45.37725386 57.69683148 41.6953125 62.46875 C36.13801037 66.74975057 31.50354339 67.06151523 24.6328125 67 C23.68269287 67.0038269 22.73257324 67.00765381 21.75366211 67.01159668 C19.75340713 67.0143075 17.7531162 67.00700472 15.75292969 66.99023438 C12.70426845 66.96881293 9.65796359 66.99006444 6.609375 67.015625 C4.658849 67.01298158 2.70832447 67.0078563 0.7578125 67 C-0.59872437 67.01214539 -0.59872437 67.01214539 -1.98266602 67.02453613 C-7.93375199 66.93706126 -11.50193842 66.07231455 -16.3046875 62.46875 C-20.99563016 57.39162342 -20.90526199 52.633403 -20.87109375 46.06640625 C-20.87729233 45.07047958 -20.88349091 44.07455292 -20.88987732 43.04844666 C-20.89696207 40.94807917 -20.89382505 38.84765536 -20.88110352 36.74731445 C-20.8672456 33.54467743 -20.90132065 30.34496836 -20.93945312 27.14257812 C-20.94040449 25.09635346 -20.93854457 23.05012515 -20.93359375 21.00390625 C-20.94685196 20.05266373 -20.96011017 19.1014212 -20.97377014 18.12135315 C-20.88675474 11.86543875 -19.77805624 7.95070685 -15.3046875 3.46875 C-10.80711446 -0.48903325 -5.69924957 0.00119771 0 0 Z " fill="#1C5F21" transform="translate(20.3046875,-0.46875)"/>
<path d="M0 0 C3 1 3 1 4.75 3 C6.49906681 7.19776033 5.7938148 10.61010852 5 15 C6.175625 14.9175 7.35125 14.835 8.5625 14.75 C13.36548011 14.71575415 16.05599047 16.37066032 20 19 C20.495 17.515 20.495 17.515 21 16 C21.99 16 22.98 16 24 16 C24.17015625 16.60585938 24.3403125 17.21171875 24.515625 17.8359375 C25.84630113 22.43667943 27.31117824 26.80495497 29.25 31.1875 C31.01808066 35.49592645 31.40001499 38.42661768 30 43 C28.70738712 45.28108156 27.66307703 45.79000163 25.19921875 46.5703125 C23.0141 47.02297363 21.2233957 47.21237113 19 47 C15.73395225 44.70681754 14.32990861 43.10551107 13.1875 39.27734375 C12.95205836 35.16202002 14.20638802 32.25389556 15.9375 28.625 C16.22818359 27.98433594 16.51886719 27.34367187 16.81835938 26.68359375 C17.53191673 25.11610711 18.26409981 23.55712215 19 22 C18.21625 21.71125 17.4325 21.4225 16.625 21.125 C14 20 14 20 12 18 C9.41645782 17.83312552 9.41645782 17.83312552 7 18 C5.36939338 23.50762528 5.69320992 29.24197167 5.625 34.9375 C5.58761719 36.11763672 5.55023438 37.29777344 5.51171875 38.51367188 C5.25969951 44.4333614 5.25969951 44.4333614 7.10449219 49.89501953 C8.56009592 51.43606511 8.56009592 51.43606511 11 53 C12 54 12 54 12 60 C4.74 60 -2.52 60 -10 60 C-10 54 -10 54 -7.5625 51.1875 C-6.716875 50.465625 -5.87125 49.74375 -5 49 C-3.67112965 47.89732294 -3.67112965 47.89732294 -3.88647461 45.13256836 C-3.89171143 43.88096924 -3.89694824 42.62937012 -3.90234375 41.33984375 C-3.9037587 40.67537735 -3.90517365 40.01091095 -3.90663147 39.3263092 C-3.91224482 37.19666101 -3.92479946 35.06711661 -3.9375 32.9375 C-3.94251329 31.49674631 -3.94707649 30.05599097 -3.95117188 28.61523438 C-3.96221855 25.07678898 -3.97949208 21.53840461 -4 18 C-9.24596328 17.76813422 -11.0616847 18.49927529 -15 22 C-15.66 22 -16.32 22 -17 22 C-16.55527344 22.94101562 -16.11054688 23.88203125 -15.65234375 24.8515625 C-15.07992414 26.10900885 -14.50835427 27.36684225 -13.9375 28.625 C-13.64294922 29.24246094 -13.34839844 29.85992187 -13.04492188 30.49609375 C-11.14061962 34.75276938 -10.68774966 37.51484584 -12 42 C-14.23615364 45.18221864 -15.67867157 45.90652264 -19.4375 47 C-23 47 -23 47 -25.875 45.5 C-28.65401288 42.23057309 -28.79050677 40.26842462 -29 36 C-28.15498688 33.28588501 -27.29414271 30.9315254 -26.125 28.375 C-24.33124847 24.29605817 -22.66380194 20.44236686 -22 16 C-20.68 16.33 -19.36 16.66 -18 17 C-18 17.66 -18 18.32 -18 19 C-17.01 18.34 -16.02 17.68 -15 17 C-10.8492018 14.58931147 -7.72680045 14.66829471 -3 15 C-3.11859375 14.41992188 -3.2371875 13.83984375 -3.359375 13.2421875 C-4.54333986 6.06736043 -4.54333986 6.06736043 -2.0625 2.4375 C-1.381875 1.633125 -0.70125 0.82875 0 0 Z " fill="#D6E2D6" transform="translate(32,3)"/>
<path d="M0 0 C0.66 0.66 1.32 1.32 2 2 C2.99 2 3.98 2 5 2 C5 2.99 5 3.98 5 5 C5.66 5.33 6.32 5.66 7 6 C7 7.65 7 9.3 7 11 C6.34 11.33 5.68 11.66 5 12 C5.33 12.33 5.66 12.66 6 13 C6.14598618 14.88991899 6.22735091 16.78490502 6.28125 18.6796875 C6.33732422 20.41412109 6.33732422 20.41412109 6.39453125 22.18359375 C6.44673828 24.01083984 6.44673828 24.01083984 6.5 25.875 C6.56881839 28.26835052 6.64155339 30.66159257 6.71875 33.0546875 C6.74904297 34.12187012 6.77933594 35.18905273 6.81054688 36.28857422 C6.89348319 39.09600512 6.89348319 39.09600512 8 42 C5.36 42 2.72 42 0 42 C1 39 1 39 3 37 C2.01 37 1.02 37 0 37 C-0.33 27.43 -0.66 17.86 -1 8 C-7.31729179 8 -7.69814742 8.17613104 -12 12 C-12.66 12 -13.32 12 -14 12 C-13.33291016 13.41152344 -13.33291016 13.41152344 -12.65234375 14.8515625 C-12.07992414 16.10900885 -11.50835427 17.36684225 -10.9375 18.625 C-10.64294922 19.24246094 -10.34839844 19.85992187 -10.04492188 20.49609375 C-8.14061962 24.75276938 -7.68774966 27.51484584 -9 32 C-11.23615364 35.18221864 -12.67867157 35.90652264 -16.4375 37 C-20 37 -20 37 -22.875 35.5 C-25.65401288 32.23057309 -25.79050677 30.26842462 -26 26 C-25.15498688 23.28588501 -24.29414271 20.9315254 -23.125 18.375 C-21.33124847 14.29605817 -19.66380194 10.44236686 -19 6 C-17.68 6.33 -16.36 6.66 -15 7 C-15 7.66 -15 8.32 -15 9 C-14.01 8.34 -13.02 7.68 -12 7 C-7.8492018 4.58931147 -4.72680045 4.66829471 0 5 C0 3.35 0 1.7 0 0 Z " fill="#F7F9F7" transform="translate(29,13)"/>
<path d="M0 0 C0.99 0 1.98 0 3 0 C3.25523438 0.90878906 3.25523438 0.90878906 3.515625 1.8359375 C4.84630113 6.43667943 6.31117824 10.80495497 8.25 15.1875 C10.01808066 19.49592645 10.40001499 22.42661768 9 27 C7.70738712 29.28108156 6.66307703 29.79000163 4.19921875 30.5703125 C2.0141 31.02297363 0.2233957 31.21237113 -2 31 C-5.30713749 28.67796729 -6.69374598 27.09792067 -7.78125 23.19921875 C-8.04346781 19.36428323 -7.19295782 17.33033337 -5.5625 13.875 C-3.79720369 10.09428364 -3 8.24428932 -3 4 C-2.34 4 -1.68 4 -1 4 C-0.67 2.68 -0.34 1.36 0 0 Z " fill="#F3F6F3" transform="translate(53,19)"/>
<path d="M0 0 C0.66 0.66 1.32 1.32 2 2 C2.99 2 3.98 2 5 2 C5 2.99 5 3.98 5 5 C5.66 5.33 6.32 5.66 7 6 C7 7.65 7 9.3 7 11 C6.01 11.495 6.01 11.495 5 12 C5.33 12.33 5.66 12.66 6 13 C6.14598618 14.88991899 6.22735091 16.78490502 6.28125 18.6796875 C6.31863281 19.83597656 6.35601562 20.99226563 6.39453125 22.18359375 C6.42933594 23.40175781 6.46414062 24.61992188 6.5 25.875 C6.56881839 28.26835052 6.64155339 30.66159257 6.71875 33.0546875 C6.74904297 34.12187012 6.77933594 35.18905273 6.81054688 36.28857422 C6.89348319 39.09600512 6.89348319 39.09600512 8 42 C5.36 42 2.72 42 0 42 C1 39 1 39 3 37 C2.01 37 1.02 37 0 37 C-0.33 27.43 -0.66 17.86 -1 8 C-3.97 7.505 -3.97 7.505 -7 7 C-6.67 6.34 -6.34 5.68 -6 5 C-4.02 5 -2.04 5 0 5 C0 3.35 0 1.7 0 0 Z " fill="#B9CEBB" transform="translate(29,13)"/>
<path d="M0 0 C3 1 3 1 4.75 3 C6.49906681 7.19776033 5.7938148 10.61010852 5 15 C6.175625 14.9175 7.35125 14.835 8.5625 14.75 C13.36548011 14.71575415 16.05599047 16.37066032 20 19 C19.67 19.99 19.34 20.98 19 22 C16.08482708 20.92598892 14.22189824 20.22189824 12 18 C9.41645782 17.83312552 9.41645782 17.83312552 7 18 C6.67 19.32 6.34 20.64 6 22 C5.34 22 4.68 22 4 22 C4 29.92 4 37.84 4 46 C3.67 46 3.34 46 3 46 C2.97812622 44.97060303 2.97812622 44.97060303 2.95581055 43.92041016 C2.88149849 40.82136099 2.78478418 37.72340945 2.6875 34.625 C2.66494141 33.54476562 2.64238281 32.46453125 2.61914062 31.3515625 C2.58369141 30.3203125 2.54824219 29.2890625 2.51171875 28.2265625 C2.48553467 27.27346191 2.45935059 26.32036133 2.43237305 25.33837891 C2.21834839 24.18088135 2.21834839 24.18088135 2 23 C1.01 22.34 0.02 21.68 -1 21 C0.65 21 2.3 21 4 21 C4 19.35 4 17.7 4 16 C3.01 15.67 2.02 15.34 1 15 C1.33 14.01 1.66 13.02 2 12 C1.01 12 0.02 12 -1 12 C-1.33 12.66 -1.66 13.32 -2 14 C-3.83140091 10.22946872 -4.3379593 8.01387791 -3 4 C-1.4375 1.6875 -1.4375 1.6875 0 0 Z " fill="#F8FAF9" transform="translate(32,3)"/>
<path d="M0 0 C0.99 0 1.98 0 3 0 C3.02505615 0.77190674 3.0501123 1.54381348 3.07592773 2.33911133 C3.19184007 5.83041181 3.31458824 9.32143922 3.4375 12.8125 C3.47681641 14.02744141 3.51613281 15.24238281 3.55664062 16.49414062 C3.59853516 17.65751953 3.64042969 18.82089844 3.68359375 20.01953125 C3.72025146 21.09307861 3.75690918 22.16662598 3.79467773 23.27270508 C3.89541847 26.09311553 3.89541847 26.09311553 5 29 C2.36 29 -0.28 29 -3 29 C-2 26 -2 26 0 24 C0.27808217 21.47622345 0.27808217 21.47622345 0.1953125 18.5546875 C0.18886719 17.47832031 0.18242188 16.40195312 0.17578125 15.29296875 C0.15902344 14.16503906 0.14226563 13.03710938 0.125 11.875 C0.11597656 10.73933594 0.10695312 9.60367188 0.09765625 8.43359375 C0.07403098 5.62218701 0.04109013 2.81119702 0 0 Z " fill="#649167" transform="translate(32,26)"/>
<path d="M0 0 C0.66 0.66 1.32 1.32 2 2 C5.12814514 2.24360073 5.12814514 2.24360073 8.625 2.125 C9.81351563 2.10695312 11.00203125 2.08890625 12.2265625 2.0703125 C13.14179688 2.04710937 14.05703125 2.02390625 15 2 C14.2578125 5.78125 14.2578125 5.78125 11.9375 7.75 C11.298125 8.1625 10.65875 8.575 10 9 C10.33 9.66 10.66 10.32 11 11 C6.87203885 10.7618484 4.65367367 10.60339108 1.5625 7.75 C-0.10291199 4.8188749 -0.37775893 3.3053906 0 0 Z " fill="#C8D8C9" transform="translate(3,39)"/>
<path d="M0 0 C0.33 0 0.66 0 1 0 C1 1.65 1 3.3 1 5 C2.175625 4.9175 3.35125 4.835 4.5625 4.75 C9.36548011 4.71575415 12.05599047 6.37066032 16 9 C15.67 9.99 15.34 10.98 15 12 C12.08482708 10.92598892 10.22189824 10.22189824 8 8 C5.41645782 7.83312552 5.41645782 7.83312552 3 8 C2.67 9.32 2.34 10.64 2 12 C1.34 12 0.68 12 0 12 C0 19.92 0 27.84 0 36 C-0.33 36 -0.66 36 -1 36 C-1.02187378 34.97060303 -1.02187378 34.97060303 -1.04418945 33.92041016 C-1.11850151 30.82136099 -1.21521582 27.72340945 -1.3125 24.625 C-1.33505859 23.54476562 -1.35761719 22.46453125 -1.38085938 21.3515625 C-1.41630859 20.3203125 -1.45175781 19.2890625 -1.48828125 18.2265625 C-1.51446533 17.27346191 -1.54064941 16.32036133 -1.56762695 15.33837891 C-1.71031006 14.56671387 -1.85299316 13.79504883 -2 13 C-2.99 12.34 -3.98 11.68 -5 11 C-3.35 11 -1.7 11 0 11 C0 9.35 0 7.7 0 6 C-0.66 5.67 -1.32 5.34 -2 5 C-1.34 3.35 -0.68 1.7 0 0 Z " fill="#F6F9F6" transform="translate(36,13)"/>
<path d="M0 0 C0.33 0.66 0.66 1.32 1 2 C3.8159849 2.46898963 3.8159849 2.46898963 7.0625 2.625 C8.71958984 2.73714844 8.71958984 2.73714844 10.41015625 2.8515625 C11.26480469 2.90054688 12.11945312 2.94953125 13 3 C13 3.33 13 3.66 13 4 C9.04 4 5.08 4 1 4 C3.47274829 8.27322739 3.47274829 8.27322739 6.9375 8.4375 C10.30554356 7.95635092 11.6166553 7.3833447 14 5 C15.2516467 2.91665365 15.2516467 2.91665365 16 1 C15.40745672 7.28095872 15.40745672 7.28095872 13.9375 9.875 C10.76414773 11.71759164 7.6585519 12.34945233 4 12 C0.43101939 9.49412 -0.77267454 7.9267884 -1.8125 3.6875 C-1.874375 2.800625 -1.93625 1.91375 -2 1 C-1.34 0.67 -0.68 0.34 0 0 Z " fill="#D1DFD2" transform="translate(47,38)"/>
<path d="M0 0 C0.66 0.33 1.32 0.66 2 1 C2 4.63 2 8.26 2 12 C-3 12 -3 12 -5 11 C-4.55123384 9.35153231 -4.09069512 7.70626545 -3.625 6.0625 C-3.36976562 5.14597656 -3.11453125 4.22945312 -2.8515625 3.28515625 C-2 1 -2 1 0 0 Z " fill="#E4ECE5" transform="translate(51,28)"/>
<path d="M0 0 C0.33 0.99 0.66 1.98 1 3 C6.94 3 12.88 3 19 3 C19 2.34 19 1.68 19 1 C19.66 1 20.32 1 21 1 C21 2.32 21 3.64 21 5 C13.74 5 6.48 5 -1 5 C-0.67 3.35 -0.34 1.7 0 0 Z " fill="#F0F4F0" transform="translate(23,58)"/>
<path d="M0 0 C0.33 0.66 0.66 1.32 1 2 C1.66 2 2.32 2 3 2 C3.33 1.34 3.66 0.68 4 0 C4.99 2.97 5.98 5.94 7 9 C6.34 9 5.68 9 5 9 C5 9.66 5 10.32 5 11 C3.35 11 1.7 11 0 11 C0 7.37 0 3.74 0 0 Z " fill="#E0E9E1" transform="translate(13,29)"/>
<path d="M0 0 C3.96 0 7.92 0 12 0 C10 4 10 4 9 5 C3.6360424 5.4664311 3.6360424 5.4664311 1.125 3.625 C0 2 0 2 0 0 Z " fill="#216226" transform="translate(48,42)"/>
<path d="M0 0 C3.96 0 7.92 0 12 0 C10 4 10 4 9 5 C3.6360424 5.4664311 3.6360424 5.4664311 1.125 3.625 C0 2 0 2 0 0 Z " fill="#216226" transform="translate(6,42)"/>
<path d="M0 0 C4.62 0 9.24 0 14 0 C14.33 0.99 14.66 1.98 15 3 C9.72 3 4.44 3 -1 3 C-0.67 2.01 -0.34 1.02 0 0 Z " fill="#38723C" transform="translate(26,57)"/>
<path d="M0 0 C0.66 0.33 1.32 0.66 2 1 C2 1.66 2 2.32 2 3 C2.32033957 5.00212229 2.65259077 7.00239695 3 9 C0.66666667 9 -1.66666667 9 -4 9 C-3.46930939 5.17902761 -2.50298434 2.93828597 0 0 Z " fill="#DBE5DC" transform="translate(32,3)"/>
<path d="M0 0 C0.99 0.33 1.98 0.66 3 1 C2.68657358 4.44769066 2.32465015 6.55940337 0.25 9.375 C-2.41011015 11.29619066 -3.79064469 11.35659503 -7 11 C-6.21625 10.4225 -5.4325 9.845 -4.625 9.25 C-2.19952756 7.17102363 -1.14305583 5.90959667 0 3 C-1.32 2.67 -2.64 2.34 -4 2 C-2.68 2 -1.36 2 0 2 C0 1.34 0 0.68 0 0 Z " fill="#EDF2ED" transform="translate(18,38)"/>
<path d="M0 0 C0.33 0 0.66 0 1 0 C1.01981934 0.68626465 1.03963867 1.3725293 1.06005859 2.07958984 C1.15510945 5.17845779 1.26486847 8.27663294 1.375 11.375 C1.4059375 12.45523438 1.436875 13.53546875 1.46875 14.6484375 C1.50742187 15.6796875 1.54609375 16.7109375 1.5859375 17.7734375 C1.6173584 18.72653809 1.6487793 19.67963867 1.68115234 20.66162109 C1.78555796 23.18895176 1.78555796 23.18895176 4 25 C3.38125 25.28875 2.7625 25.5775 2.125 25.875 C-0.13325765 26.93720042 -0.13325765 26.93720042 -2 29 C-2 25 -2 25 -1 24 C-0.84235595 22.22130274 -0.74899323 20.43681524 -0.68359375 18.65234375 C-0.64169922 17.57275391 -0.59980469 16.49316406 -0.55664062 15.38085938 C-0.51732422 14.24455078 -0.47800781 13.10824219 -0.4375 11.9375 C-0.39431641 10.79732422 -0.35113281 9.65714844 -0.30664062 8.48242188 C-0.20017161 5.65507805 -0.09815793 2.82764262 0 0 Z " fill="#FBFCFB" transform="translate(30,26)"/>
<path d="M0 0 C2 1 2 1 2.8515625 3.06640625 C3.10679688 3.89011719 3.36203125 4.71382812 3.625 5.5625 C3.88539062 6.38878906 4.14578125 7.21507812 4.4140625 8.06640625 C4.60742188 8.70449219 4.80078125 9.34257813 5 10 C3.35 10 1.7 10 0 10 C0 6.7 0 3.4 0 0 Z " fill="#447B48" transform="translate(55,29)"/>
<path d="M0 0 C0.33 0 0.66 0 1 0 C1 3.3 1 6.6 1 10 C-0.65 10 -2.3 10 -4 10 C-2.68 6.7 -1.36 3.4 0 0 Z " fill="#447B48" transform="translate(10,29)"/>
<path d="M0 0 C0.33 0.66 0.66 1.32 1 2 C3.8159849 2.46898963 3.8159849 2.46898963 7.0625 2.625 C8.71958984 2.73714844 8.71958984 2.73714844 10.41015625 2.8515625 C11.26480469 2.90054688 12.11945312 2.94953125 13 3 C13 3.33 13 3.66 13 4 C12.16855469 3.98839844 11.33710937 3.97679687 10.48046875 3.96484375 C8.85044922 3.95130859 8.85044922 3.95130859 7.1875 3.9375 C5.56908203 3.92009766 5.56908203 3.92009766 3.91796875 3.90234375 C0.93487831 3.86375234 0.93487831 3.86375234 -2 5 C-2 3.68 -2 2.36 -2 1 C-1.34 0.67 -0.68 0.34 0 0 Z " fill="#C9D9CB" transform="translate(47,38)"/>
<path d="M0 0 C0.33 0 0.66 0 1 0 C1 3.3 1 6.6 1 10 C-0.32 10 -1.64 10 -3 10 C-2.39009109 6.44219804 -1.4216319 3.3171411 0 0 Z " fill="#357039" transform="translate(52,29)"/>
<path d="M0 0 C2.97903734 2.97903734 4 5.80285329 4 10 C2.68 10 1.36 10 0 10 C0 6.7 0 3.4 0 0 Z " fill="#347039" transform="translate(13,29)"/>
<path d="M0 0 C0.5775 0.763125 1.155 1.52625 1.75 2.3125 C3.71703093 4.66200917 5.48476744 6.29323505 8 8 C5.69 7.67 3.38 7.34 1 7 C-0.0625 4.625 -0.0625 4.625 -1 2 C-0.67 1.34 -0.34 0.68 0 0 Z " fill="#F0F4F0" transform="translate(47,41)"/>
<path d="M0 0 C0.66 0.33 1.32 0.66 2 1 C-1.625 5.875 -1.625 5.875 -5 7 C-5 6.34 -5 5.68 -5 5 C-5.66 4.67 -6.32 4.34 -7 4 C-1.7265625 0.77734375 -1.7265625 0.77734375 0 0 Z " fill="#E2EAE2" transform="translate(21,18)"/>
<path d="M0 0 C1.98 0 3.96 0 6 0 C6.33 0.99 6.66 1.98 7 3 C4.36 3 1.72 3 -1 3 C-0.67 2.01 -0.34 1.02 0 0 Z " fill="#336F38" transform="translate(30,52)"/>
<path d="M0 0 C0.66 0.33 1.32 0.66 2 1 C1.25 6.75 1.25 6.75 -1 9 C-1.66 9 -2.32 9 -3 9 C-2.01 6.03 -1.02 3.06 0 0 Z " fill="#E0E9E1" transform="translate(7,29)"/>
<path d="M0 0 C2.49361571 1.20381448 4.68143083 2.45428722 7 4 C6.67 4.66 6.34 5.32 6 6 C2.34683329 4.75023244 1.21934164 4.32901247 -1 1 C-0.67 0.67 -0.34 0.34 0 0 Z " fill="#DFE8E0" transform="translate(45,19)"/>
<path d="M0 0 C0.66 0 1.32 0 2 0 C3.6875 2.3125 3.6875 2.3125 5 5 C4.67 5.99 4.34 6.98 4 8 C3.34 8 2.68 8 2 8 C1.87625 7.030625 1.7525 6.06125 1.625 5.0625 C1.41875 4.051875 1.2125 3.04125 1 2 C0.34 1.67 -0.32 1.34 -1 1 C-0.67 0.67 -0.34 0.34 0 0 Z " fill="#E4ECE4" transform="translate(33,4)"/>
<path d="M0 0 C0.66 0 1.32 0 2 0 C2.33 1.65 2.66 3.3 3 5 C1.68 5 0.36 5 -1 5 C-0.67 3.35 -0.34 1.7 0 0 Z " fill="#2F6C34" transform="translate(32,7)"/>
</svg>
